<svg width="111" height="38" viewBox="0 0 111 38" fill="none" xmlns="http://www.w3.org/2000/svg">
<path fill-rule="evenodd" clip-rule="evenodd" d="M36.9729 13.7339L36.9424 13.0662L36.8314 12.257L36.7308 11.7814L36.5992 11.3163L36.3976 10.8608L36.0343 10.3446L35.651 9.879L35.2268 9.44403L34.763 9.04968L33.9659 8.56359L33.2289 8.21945L32.4724 7.92643L31.6854 7.69366L30.353 7.45084L29.3238 7.33947L28.2946 7.30935L27.1748 7.29931L26.3978 7.33947L25.6308 7.45084L24.8638 7.60283L23.9557 7.84564L23.4609 7.99718L22.9665 8.18979L22.5227 8.42211L22.0784 8.70554L21.6952 9.02915L21.3319 9.39337L21.0092 9.77813L20.8676 9.98033L20.8476 7.69366L7.38649 7.74432V6.69181L7.41653 6.3075L7.48754 5.93324L7.67918 5.43757L7.8608 5.09343L8.09295 4.77986L8.36516 4.49643L8.79896 4.15228L9.21319 3.91997L9.93923 3.67669L10.5446 3.55574L11.1605 3.49458L11.9375 3.48454L12.4924 3.52516L13.0373 3.62649L13.6932 3.77802L14.0565 3.89943L14.3997 4.05141L14.7124 4.25361L15.0556 4.54709L15.3078 4.83052L15.53 5.15413L15.7116 5.47819L15.8427 5.84241L15.9233 6.13543L20.7065 6.11535L20.666 5.88258L20.6054 5.37686L20.4843 4.88119L20.2927 4.34444L20.0605 3.8693L19.6668 3.31293L19.2535 2.84738L18.7792 2.41195L18.2743 2.02764L17.7299 1.67346L16.7608 1.24853L15.7617 0.975591L14.7224 0.77294L13.0173 0.550663L11.9676 0.5L10.9079 0.530125L9.84865 0.601326L9.03111 0.692156L8.37517 0.77294L7.7297 0.884308L7.10381 1.05638L6.47837 1.26862L5.84246 1.54201L5.32808 1.82545L4.84375 2.14905L4.38947 2.51373L3.96568 2.91812L3.63293 3.31293L3.33022 3.71732L3.07759 4.16278L2.87594 4.62787L2.71434 5.11351L2.60373 5.60964L2.5532 6.11535L2.54273 6.48962L2.53272 7.75436L0 7.80503V11.0328H2.59371L2.60373 24.1659L7.46751 24.196L7.40651 11.0023H15.8327L15.8627 24.1257H20.8881L20.8676 15.3428V15.1005L20.9081 14.645L20.9992 14.21L21.1403 13.7846L21.3219 13.3702L21.6346 12.9147L21.9678 12.5199L22.3411 12.1657L22.7549 11.8521L23.4813 11.4678L24.0868 11.235L24.7122 11.0429L25.3481 10.911L26.0241 10.8101L26.6095 10.7494L27.1644 10.7394L27.7092 10.7896L28.2545 10.8808L28.7689 11.0223L29.2833 11.1944L29.9898 11.5386L30.353 11.7613L30.6862 12.0242L30.9789 12.3076L31.2716 12.6723L31.5238 13.0867L31.7154 13.5317L31.867 13.9772L31.9676 14.4318L31.9981 14.6646L32.0381 15.262L32.1192 24.1257L37.0535 24.1454L36.9729 14.1287V13.7339ZM57.7299 13.2784L57.689 12.6819L57.5984 12.115L57.4873 11.5687L57.3567 11.1337L57.1746 10.7188L56.8623 10.2633L56.4276 9.79776L55.9742 9.37283L55.4799 8.99857L54.6319 8.57364L53.8248 8.23999L52.9872 7.95656L52.1292 7.73382L50.6357 7.52159L49.2842 7.42026L47.9018 7.34952L47.6591 7.33947H46.6805L45.7223 7.42072L44.7436 7.54212L43.8856 7.67403L43.2701 7.79544L42.6743 7.95701L42.0894 8.18979L41.3524 8.55401L40.8785 8.83745L40.4447 9.15147L40.031 9.51569L39.6777 9.91004L39.355 10.3455L39.0623 10.811L38.8201 11.2866L38.628 11.7823L38.4869 12.3081L38.4264 12.5714L38.3658 13.0876L43.4513 13.0466L43.4618 12.8745L43.5428 12.5007L43.7039 12.0557L43.8355 11.7622L44.0167 11.4988L44.3795 11.1752L44.9148 10.8612L45.4596 10.6084L46.0446 10.3961L46.6199 10.2346L47.2363 10.1232L47.8417 10.0625H47.9022L48.4571 10.0524L49.0625 10.1031L49.6679 10.2044L50.2638 10.3459L50.8487 10.5481L51.313 10.7503L51.7373 10.9831L52.1001 11.1953L52.3222 11.3774L52.5143 11.5897L52.715 11.8831L52.837 12.1867L52.918 12.4391L52.9276 12.7225L52.8976 12.9658L52.7865 13.2894L52.6549 13.5121L52.4032 13.7645L52.1205 13.9667L51.8379 14.0986L51.0508 14.2912L50.506 14.3716L47.9027 14.6249L41.5859 15.2223L41.2427 15.3036L40.7584 15.4044L40.1425 15.6468L39.4765 16.0211L39.1433 16.2342L38.75 16.5482L38.4979 16.8417L38.2052 17.2963L38.0235 17.6815L37.882 18.2073L37.8114 18.693L37.7914 19.1982L37.8314 19.8162L37.9225 20.3822L38.0235 20.7975L38.1847 21.2024L38.4979 21.7076L38.7905 22.0919L39.1133 22.4466L39.8093 22.9217L40.3947 23.2453L41.1512 23.5388L42.0092 23.7921L42.8768 23.9943L43.7649 24.1458L44.663 24.2271L45.5611 24.2476L46.4602 24.2175L47.3378 24.1266L47.9031 24.0358L48.2259 23.9751L49.1035 23.762L49.9615 23.489L50.7991 23.175L51.6062 22.8007L52.3832 22.3754L52.9076 22.0422V24.1664L57.8018 24.1965L57.7413 13.4615L57.7299 13.2784ZM52.9058 18.0243L52.8757 18.1964L52.7947 18.5706L52.6736 18.9244L52.3604 19.3799L52.0172 19.7943L51.4928 20.3105L51.0285 20.6642L50.5246 20.9783L49.9893 21.2512L49.4444 21.4643L48.8895 21.6364L48.3046 21.7578L47.9009 21.8085L47.7088 21.8281L47.1238 21.8386L46.538 21.7975L45.9431 21.7067L45.3777 21.5853L44.8133 21.3927L44.2684 21.1403L43.6024 20.766L43.3999 20.5529L43.1677 20.1991L43.0371 19.9362L42.9465 19.6829L42.9055 19.3689L42.916 19.1266L42.9665 18.8833L43.1072 18.5702L43.2893 18.3474L43.5009 18.1452L43.8947 17.9431L44.3385 17.771L44.7823 17.6596L47.9013 17.336L48.9405 17.2342L50.2624 17.1032L51.1 16.9919L51.5738 16.8901L52.0281 16.7491L52.472 16.5469L52.9058 16.3132V18.0243ZM74.8531 18.692L74.6924 18.9349L74.5608 19.1466L74.2381 19.5319L73.8949 19.8956L73.5116 20.2096L72.8252 20.5839L72.2102 20.8272L71.5843 20.9993L70.9388 21.1412L70.0303 21.232L69.3543 21.2517L68.6883 21.1909L68.0324 21.0796L67.3765 20.928L66.8011 20.7665L66.3468 20.5935L65.9235 20.4018L65.5197 20.1489L65.1164 19.8153L64.7427 19.441L64.43 19.0462L64.1578 18.6012L63.9152 18.1557L63.734 17.609L63.6024 17.1242L63.5114 16.6176L63.4909 16.1114L63.5114 15.6158L63.5829 15.1105L63.754 14.4624L63.9452 13.9968L64.1874 13.5422L64.47 13.1073L64.7937 12.722L65.1565 12.3683L65.6312 12.0141L66.2062 11.7001L66.7911 11.4573L67.3869 11.2451L68.0224 11.0931L68.6583 10.9822L69.2432 10.9315L69.8691 10.9215L70.4941 10.9721L71.1105 11.083L71.7559 11.1944L72.2298 11.3364L72.6741 11.5285L73.0983 11.7508L73.5021 12.0242L73.8753 12.3377L74.2076 12.6723L74.4903 13.0566L74.702 13.34L79.9599 13.299L79.8889 13.0457L79.7073 12.5098L79.4952 12.0242L79.223 11.5486L78.7792 10.9616L78.3649 10.4965L77.9116 10.0817L77.4272 9.69689L76.9124 9.36324L76.347 9.06977L75.7821 8.80687L74.823 8.45269L73.5722 8.12863L72.4929 7.92643L71.4027 7.79498L70.3129 7.72424L69.2132 7.71419L68.1134 7.77444L67.0232 7.88627L65.954 8.07796L64.8843 8.32124L63.8246 8.6348L62.906 8.9584L62.3511 9.2318L61.7653 9.56544L61.2614 9.91962L60.7971 10.3245L60.3633 10.7594L59.909 11.3163L59.5562 11.8521L59.253 12.3984L59.0113 12.9548L58.7587 13.8759L58.628 14.645L58.5675 15.4341L58.5265 16.3136L58.547 16.9412L58.5975 17.5583L58.7282 18.1662L58.8902 18.7733L59.2225 19.5419L59.5057 20.0978L59.8389 20.614L60.2121 21.1106L60.9591 21.8281L61.5645 22.3042L62.2 22.719L63.2396 23.2553L64.0963 23.5995L64.9653 23.882L66.4988 24.2166L67.7397 24.3581L68.9906 24.4393L69.9998 24.5L70.9388 24.489L71.8766 24.4083L72.7951 24.2869L73.7943 24.1052L74.5303 23.9231L75.2473 23.6798L75.9538 23.3863L76.6802 23.023L77.1842 22.7391L77.6589 22.405L78.0927 22.0413L78.5065 21.6259L78.8702 21.1809L79.2025 20.7049L79.4756 20.2096L79.7073 19.6934L79.8789 19.1466L80 18.7628L74.8531 18.692Z" fill="#1A1305"/>
<path d="M4.872 35.316H3.096L2.676 37.5H1.272L1.692 35.316H0.528L0.768 34.068H1.944L2.28 32.292H1.128L1.368 31.044H2.532L2.952 28.86H4.356L3.936 31.044H5.712L6.132 28.86H7.536L7.116 31.044H8.28L8.04 32.292H6.864L6.528 34.068H7.692L7.452 35.316H6.276L5.856 37.5H4.452L4.872 35.316ZM5.124 34.068L5.46 32.292H3.684L3.348 34.068H5.124ZM10.9725 28.86V35.748C10.9725 35.956 11.0165 36.108 11.1045 36.204C11.1925 36.292 11.3485 36.336 11.5725 36.336H12.3885V37.5H11.1885C10.6205 37.5 10.1885 37.384 9.8925 37.152C9.6045 36.912 9.4605 36.496 9.4605 35.904V28.86H10.9725ZM13.3391 31.26H14.8391V37.5H13.3391V31.26ZM13.3391 28.86H14.8511V30.264H13.3391V28.86ZM16.1285 28.86H17.6405V32.04C18.0885 31.424 18.7285 31.116 19.5605 31.116C20.1525 31.116 20.6565 31.256 21.0725 31.536C21.4965 31.816 21.8165 32.204 22.0325 32.7C22.2485 33.196 22.3565 33.756 22.3565 34.38C22.3565 35.004 22.2485 35.564 22.0325 36.06C21.8165 36.556 21.4965 36.944 21.0725 37.224C20.6565 37.504 20.1525 37.644 19.5605 37.644C19.1205 37.644 18.7325 37.556 18.3965 37.38C18.0685 37.204 17.7965 36.956 17.5805 36.636V37.5H16.1285V28.86ZM17.6165 34.38C17.6165 35.004 17.7485 35.496 18.0125 35.856C18.2845 36.208 18.6845 36.384 19.2125 36.384C19.7485 36.384 20.1485 36.208 20.4125 35.856C20.6845 35.496 20.8205 35.004 20.8205 34.38C20.8205 33.756 20.6845 33.268 20.4125 32.916C20.1485 32.556 19.7485 32.376 19.2125 32.376C18.6845 32.376 18.2845 32.556 18.0125 32.916C17.7485 33.268 17.6165 33.756 17.6165 34.38ZM26.2141 37.644C25.5821 37.644 25.0341 37.504 24.5701 37.224C24.1061 36.936 23.7501 36.548 23.5021 36.06C23.2541 35.564 23.1301 35.004 23.1301 34.38C23.1301 33.756 23.2541 33.2 23.5021 32.712C23.7501 32.216 24.1061 31.828 24.5701 31.548C25.0341 31.26 25.5821 31.116 26.2141 31.116C26.8461 31.116 27.3941 31.256 27.8581 31.536C28.3221 31.816 28.6781 32.212 28.9261 32.724C29.1741 33.236 29.2981 33.828 29.2981 34.5V34.86H24.6301C24.6941 35.356 24.8621 35.748 25.1341 36.036C25.4141 36.316 25.7741 36.456 26.2141 36.456C26.9341 36.456 27.4301 36.168 27.7021 35.592H29.1781C28.9701 36.224 28.6061 36.724 28.0861 37.092C27.5661 37.46 26.9421 37.644 26.2141 37.644ZM27.7741 33.78C27.6941 33.316 27.5181 32.956 27.2461 32.7C26.9821 32.436 26.6381 32.304 26.2141 32.304C25.7901 32.304 25.4421 32.436 25.1701 32.7C24.9061 32.956 24.7301 33.316 24.6421 33.78H27.7741ZM26.7541 28.716H28.5061L26.8261 30.468H25.5901L26.7541 28.716ZM30.3199 31.26H31.7839V32.376C32.1599 31.584 32.7879 31.188 33.6679 31.188H34.1599V32.58H33.6079C33.0399 32.58 32.5999 32.724 32.2879 33.012C31.9839 33.3 31.8319 33.788 31.8319 34.476V37.5H30.3199V31.26ZM38.0048 37.644C37.3568 37.644 36.7928 37.504 36.3128 37.224C35.8408 36.944 35.4768 36.556 35.2208 36.06C34.9728 35.564 34.8488 35.004 34.8488 34.38C34.8488 33.756 34.9728 33.196 35.2208 32.7C35.4768 32.204 35.8408 31.816 36.3128 31.536C36.7928 31.256 37.3568 31.116 38.0048 31.116C38.6528 31.116 39.2128 31.256 39.6848 31.536C40.1648 31.816 40.5288 32.204 40.7768 32.7C41.0328 33.196 41.1608 33.756 41.1608 34.38C41.1608 35.004 41.0328 35.564 40.7768 36.06C40.5288 36.556 40.1648 36.944 39.6848 37.224C39.2128 37.504 38.6528 37.644 38.0048 37.644ZM36.3848 34.38C36.3848 35.004 36.5168 35.496 36.7808 35.856C37.0528 36.208 37.4608 36.384 38.0048 36.384C38.5488 36.384 38.9528 36.208 39.2168 35.856C39.4888 35.496 39.6248 35.004 39.6248 34.38C39.6248 33.756 39.4888 33.268 39.2168 32.916C38.9528 32.556 38.5488 32.376 38.0048 32.376C37.4608 32.376 37.0528 32.556 36.7808 32.916C36.5168 33.268 36.3848 33.756 36.3848 34.38ZM46.343 33.744C46.343 33.344 46.247 33.028 46.055 32.796C45.863 32.556 45.559 32.436 45.143 32.436C44.815 32.436 44.503 32.544 44.207 32.76C43.919 32.976 43.751 33.328 43.703 33.816V37.5H42.191V31.26H43.655V32.112C43.887 31.808 44.167 31.568 44.495 31.392C44.823 31.208 45.199 31.116 45.623 31.116C46.327 31.116 46.871 31.34 47.255 31.788C47.647 32.228 47.843 32.82 47.843 33.564V37.5H46.343V33.744ZM51.5762 37.644C49.7602 37.644 48.8082 36.912 48.7202 35.448H50.1842C50.2322 35.848 50.3722 36.132 50.6042 36.3C50.8442 36.468 51.1842 36.552 51.6242 36.552C51.9922 36.552 52.2842 36.488 52.5002 36.36C52.7242 36.232 52.8362 36.052 52.8362 35.82C52.8362 35.66 52.8002 35.532 52.7282 35.436C52.6642 35.34 52.5282 35.256 52.3202 35.184C52.1122 35.104 51.7962 35.028 51.3722 34.956C50.7322 34.844 50.2282 34.7 49.8602 34.524C49.5002 34.348 49.2442 34.136 49.0922 33.888C48.9402 33.64 48.8642 33.34 48.8642 32.988C48.8642 32.404 49.0962 31.948 49.5602 31.62C50.0322 31.284 50.6602 31.116 51.4442 31.116C52.3242 31.116 52.9962 31.304 53.4602 31.68C53.9242 32.056 54.1642 32.576 54.1802 33.24H52.7762C52.7602 32.856 52.6322 32.588 52.3922 32.436C52.1522 32.284 51.8362 32.208 51.4442 32.208C51.1242 32.208 50.8602 32.272 50.6522 32.4C50.4442 32.528 50.3402 32.704 50.3402 32.928C50.3402 33.088 50.3802 33.216 50.4602 33.312C50.5482 33.408 50.7002 33.492 50.9162 33.564C51.1322 33.628 51.4522 33.696 51.8762 33.768C52.5002 33.872 52.9922 34.008 53.3522 34.176C53.7122 34.344 53.9642 34.556 54.1082 34.812C54.2602 35.06 54.3362 35.364 54.3362 35.724C54.3362 36.332 54.0802 36.804 53.5682 37.14C53.0642 37.476 52.4002 37.644 51.5762 37.644ZM59.3358 28.86V35.748C59.3358 35.956 59.3798 36.108 59.4678 36.204C59.5558 36.292 59.7118 36.336 59.9358 36.336H60.7518V37.5H59.5518C58.9838 37.5 58.5518 37.384 58.2558 37.152C57.9678 36.912 57.8238 36.496 57.8238 35.904V28.86H59.3358ZM65.6384 36.78C65.3824 37.092 65.0904 37.316 64.7624 37.452C64.4424 37.58 64.0744 37.644 63.6584 37.644C62.9704 37.644 62.4184 37.48 62.0024 37.152C61.5864 36.816 61.3784 36.352 61.3784 35.76C61.3784 35.216 61.5704 34.796 61.9544 34.5C62.3464 34.196 62.9544 33.972 63.7784 33.828L65.5904 33.504V33.144C65.5904 32.856 65.4984 32.64 65.3144 32.496C65.1304 32.352 64.8424 32.28 64.4504 32.28C64.0824 32.28 63.7784 32.36 63.5384 32.52C63.2984 32.68 63.1704 32.924 63.1544 33.252H61.6664C61.6744 32.548 61.9384 32.016 62.4584 31.656C62.9784 31.296 63.6384 31.116 64.4384 31.116C65.3104 31.116 65.9664 31.28 66.4064 31.608C66.8464 31.936 67.0664 32.392 67.0664 32.976V37.5H65.6384V36.78ZM62.9264 35.712C62.9264 35.968 63.0144 36.168 63.1904 36.312C63.3744 36.456 63.6424 36.528 63.9944 36.528C64.4344 36.528 64.8104 36.408 65.1224 36.168C65.4344 35.92 65.5904 35.556 65.5904 35.076V34.524L64.0544 34.836C63.6624 34.916 63.3744 35.016 63.1904 35.136C63.0144 35.256 62.9264 35.448 62.9264 35.712ZM73.6282 37.644C73.0042 37.644 72.4602 37.504 71.9962 37.224C71.5402 36.936 71.1882 36.548 70.9402 36.06C70.6922 35.564 70.5682 35.004 70.5682 34.38C70.5682 33.756 70.6922 33.2 70.9402 32.712C71.1882 32.216 71.5402 31.828 71.9962 31.548C72.4602 31.26 73.0042 31.116 73.6282 31.116C74.4602 31.116 75.1242 31.332 75.6202 31.764C76.1242 32.188 76.4242 32.764 76.5202 33.492H75.0082C74.9362 33.14 74.7802 32.868 74.5402 32.676C74.3002 32.476 73.9962 32.376 73.6282 32.376C73.1322 32.376 72.7522 32.556 72.4882 32.916C72.2322 33.276 72.1042 33.764 72.1042 34.38C72.1042 34.996 72.2322 35.484 72.4882 35.844C72.7522 36.204 73.1322 36.384 73.6282 36.384C74.0042 36.384 74.3122 36.28 74.5522 36.072C74.7922 35.864 74.9442 35.572 75.0082 35.196H76.5202C76.4242 35.932 76.1242 36.524 75.6202 36.972C75.1162 37.42 74.4522 37.644 73.6282 37.644ZM78.9527 35.016C78.9527 35.416 79.0487 35.736 79.2407 35.976C79.4327 36.208 79.7367 36.324 80.1527 36.324C80.4807 36.324 80.7887 36.216 81.0767 36C81.3727 35.784 81.5447 35.432 81.5927 34.944V31.26H83.1047V37.5H81.6407V36.648C81.4087 36.952 81.1287 37.196 80.8007 37.38C80.4727 37.556 80.0967 37.644 79.6727 37.644C78.9687 37.644 78.4207 37.424 78.0287 36.984C77.6447 36.536 77.4527 35.94 77.4527 35.196V31.26H78.9527V35.016ZM85.9139 28.86V35.748C85.9139 35.956 85.9579 36.108 86.0459 36.204C86.1339 36.292 86.2899 36.336 86.5139 36.336H87.3299V37.5H86.1299C85.5619 37.5 85.1299 37.384 84.8339 37.152C84.5459 36.912 84.4019 36.496 84.4019 35.904V28.86H85.9139ZM90.4285 29.34V31.26H92.0125V32.424H90.4285V35.748C90.4285 35.956 90.4725 36.108 90.5605 36.204C90.6565 36.292 90.8125 36.336 91.0285 36.336H92.0125V37.5H90.6565C90.0885 37.5 89.6565 37.384 89.3605 37.152C89.0725 36.912 88.9285 36.496 88.9285 35.904V32.424H87.8365V31.26H88.9285V29.34H90.4285ZM94.4683 35.016C94.4683 35.416 94.5643 35.736 94.7563 35.976C94.9483 36.208 95.2523 36.324 95.6683 36.324C95.9963 36.324 96.3043 36.216 96.5923 36C96.8883 35.784 97.0603 35.432 97.1083 34.944V31.26H98.6203V37.5H97.1563V36.648C96.9243 36.952 96.6443 37.196 96.3163 37.38C95.9883 37.556 95.6123 37.644 95.1883 37.644C94.4843 37.644 93.9363 37.424 93.5443 36.984C93.1603 36.536 92.9683 35.94 92.9683 35.196V31.26H94.4683V35.016ZM99.9175 31.26H101.382V32.376C101.758 31.584 102.386 31.188 103.266 31.188H103.758V32.58H103.206C102.638 32.58 102.198 32.724 101.886 33.012C101.582 33.3 101.43 33.788 101.43 34.476V37.5H99.9175V31.26ZM107.531 37.644C106.899 37.644 106.351 37.504 105.887 37.224C105.423 36.936 105.067 36.548 104.819 36.06C104.571 35.564 104.447 35.004 104.447 34.38C104.447 33.756 104.571 33.2 104.819 32.712C105.067 32.216 105.423 31.828 105.887 31.548C106.351 31.26 106.899 31.116 107.531 31.116C108.163 31.116 108.711 31.256 109.175 31.536C109.639 31.816 109.995 32.212 110.243 32.724C110.491 33.236 110.615 33.828 110.615 34.5V34.86H105.947C106.011 35.356 106.179 35.748 106.451 36.036C106.731 36.316 107.091 36.456 107.531 36.456C108.251 36.456 108.747 36.168 109.019 35.592H110.495C110.287 36.224 109.923 36.724 109.403 37.092C108.883 37.46 108.259 37.644 107.531 37.644ZM109.091 33.78C109.011 33.316 108.835 32.956 108.563 32.7C108.299 32.436 107.955 32.304 107.531 32.304C107.107 32.304 106.759 32.436 106.487 32.7C106.223 32.956 106.047 33.316 105.959 33.78H109.091Z" fill="#1A1305"/>
</svg>
