<svg width="1419" height="357" viewBox="0 0 1419 357" fill="none" xmlns="http://www.w3.org/2000/svg">
<path opacity="0.4" fill-rule="evenodd" clip-rule="evenodd" d="M655.808 233.8L655.267 222.003L653.297 207.706L651.512 199.304L649.179 191.088L645.602 183.04L639.159 173.92L632.36 165.696L624.835 158.011L616.608 151.044L602.47 142.457L589.398 136.377L575.979 131.2L562.019 127.088L538.386 122.798L520.131 120.831L501.876 120.298L482.013 120.121L468.231 120.831L454.626 122.798L441.021 125.483L424.914 129.773L416.137 132.45L407.369 135.853L399.496 139.957L391.616 144.965L384.818 150.682L378.375 157.116L372.65 163.914L370.139 167.486L369.784 127.088L131.018 127.983V109.389L131.551 102.599L132.81 95.9872L136.209 87.2303L139.431 81.1505L143.549 75.6109L148.377 70.6035L156.072 64.5237L163.419 60.4194L176.297 56.1216L187.036 53.9847L197.96 52.9043L211.742 52.7269L221.585 53.4445L231.249 55.2346L242.884 57.9116L249.327 60.0566L255.415 62.7416L260.962 66.3137L267.05 71.4986L271.523 76.5059L275.463 82.2229L278.684 87.948L281.01 94.3826L282.439 99.5593L367.281 99.2045L366.562 95.0922L365.489 86.1579L363.341 77.401L359.942 67.9184L355.824 59.5244L348.84 49.695L341.509 41.4703L333.095 33.7778L324.141 26.9883L314.485 20.7311L297.295 13.224L279.572 8.40211L261.139 4.82194L230.894 0.895043L212.275 0L193.479 0.532202L174.69 1.79009L160.189 3.39475L148.555 4.82194L137.106 6.78944L126.004 9.82935L114.91 13.5789L103.631 18.4089L94.5069 23.4162L85.9161 29.1332L77.8582 35.5759L70.3412 42.7202L64.4391 49.695L59.0698 56.8392L54.5887 64.7091L51.0119 72.9258L48.1456 81.5053L46.1836 90.2702L45.2874 99.2045L45.1017 105.817L44.9241 128.16L0 129.055V186.08H46.006L46.1836 418.098L132.455 418.63L131.373 185.54H280.832L281.365 417.388H370.503L370.139 262.223V257.941L370.858 249.894L372.473 242.21L374.976 234.695L378.197 227.373L383.744 219.326L389.654 212.351L396.275 206.094L403.614 200.554L416.5 193.765L427.239 189.652L438.333 186.257L449.612 183.927L461.602 182.145L471.985 181.073L481.828 180.895L491.492 181.782L501.165 183.395L510.289 185.895L519.412 188.935L531.943 195.014L538.386 198.949L544.297 203.594L549.488 208.601L554.68 215.044L559.153 222.366L562.552 230.227L565.241 238.097L567.025 246.129L567.566 250.241L568.277 260.796L569.714 417.388L657.237 417.735L655.808 240.774V233.8ZM1023.98 225.752L1023.26 215.213L1021.65 205.199L1019.68 195.547L1017.36 187.862L1014.13 180.532L1008.6 172.485L1000.88 164.26L992.843 156.753L984.075 150.141L969.033 142.634L954.717 136.74L939.861 131.732L924.641 127.797L898.15 124.048L874.179 122.258L849.658 121.008L845.354 120.831H827.995L810.999 122.266L793.64 124.411L778.42 126.741L767.504 128.886L756.935 131.741L746.56 135.853L733.488 142.288L725.083 147.295L717.388 152.843L710.049 159.277L703.784 166.244L698.059 173.937L692.867 182.161L688.572 190.563L685.165 199.32L682.662 208.609L681.588 213.262L680.514 222.382L770.718 221.656L770.903 218.616L772.341 212.012L775.199 204.15L777.532 198.965L780.746 194.313L787.181 188.596L796.676 183.048L806.34 178.581L816.716 174.832L826.921 171.977L837.853 170.01L848.592 168.937H849.666L859.508 168.76L870.247 169.655L880.985 171.445L891.554 173.945L901.929 177.517L910.165 181.089L917.69 185.201L924.125 188.951L928.065 192.168L931.472 195.918L935.033 201.102L937.197 206.464L938.634 210.924L938.803 215.931L938.27 220.229L936.3 225.946L933.967 229.881L929.502 234.34L924.488 237.912L919.474 240.242L905.514 243.645L895.849 245.064L849.674 249.539L737.63 260.094L731.542 261.53L722.951 263.312L712.027 267.593L700.215 274.205L694.305 277.971L687.329 283.519L682.856 288.703L677.664 296.735L674.443 303.54L671.931 312.829L670.68 321.409L670.325 330.335L671.035 341.253L672.65 351.252L674.443 358.589L677.301 365.742L682.856 374.668L688.047 381.457L693.772 387.723L706.117 396.117L716.5 401.834L729.919 407.018L745.139 411.494L760.528 415.066L776.281 417.743L792.211 419.178L808.141 419.541L824.087 419.009L839.654 417.404L849.682 415.799L855.406 414.727L870.973 410.961L886.193 406.139L901.049 400.592L915.364 393.98L929.147 386.465L938.448 380.578V418.106L1025.26 418.638L1024.19 228.986L1023.98 225.752ZM938.416 309.596L937.883 312.636L936.446 319.248L934.298 325.497L928.743 333.544L922.655 340.866L913.354 349.986L905.118 356.235L896.18 361.783L886.685 366.604L877.021 370.37L867.178 373.41L856.803 375.555L849.642 376.45L846.234 376.797L835.859 376.982L825.468 376.256L814.915 374.652L804.887 372.507L794.875 369.104L785.211 364.645L773.398 358.033L769.805 354.267L765.687 348.018L763.37 343.374L761.763 338.898L761.037 333.351L761.222 329.069L762.119 324.771L764.614 319.24L767.843 315.305L771.598 311.733L778.582 308.161L786.454 305.121L794.326 303.153L849.65 297.436L868.083 295.638L891.53 293.324L906.386 291.356L914.791 289.558L922.849 287.067L930.721 283.495L938.416 279.366V309.596ZM1327.71 321.393L1324.86 325.682L1322.52 329.424L1316.8 336.229L1310.71 342.656L1303.91 348.204L1291.74 354.816L1280.83 359.114L1269.73 362.153L1258.28 364.661L1242.16 366.266L1230.17 366.613L1218.36 365.54L1206.72 363.573L1195.09 360.896L1184.88 358.041L1176.83 354.985L1169.32 351.598L1162.16 347.131L1155 341.237L1148.37 334.625L1142.83 327.65L1138 319.788L1133.7 311.918L1130.48 302.258L1128.15 293.695L1126.53 284.744L1126.17 275.802L1126.53 267.045L1127.8 258.119L1130.84 246.669L1134.23 238.444L1138.52 230.413L1143.54 222.728L1149.28 215.923L1155.71 209.674L1164.13 203.417L1174.33 197.869L1184.71 193.579L1195.28 189.83L1206.55 187.144L1217.83 185.185L1228.2 184.29L1239.3 184.113L1250.39 185.008L1261.32 186.967L1272.77 188.935L1281.18 191.442L1289.06 194.837L1296.58 198.764L1303.74 203.594L1310.36 209.133L1316.26 215.044L1321.27 221.833L1325.03 226.841L1418.29 226.115L1417.03 221.64L1413.81 212.173L1410.05 203.594L1405.22 195.192L1397.35 184.822L1390 176.606L1381.96 169.276L1373.37 162.478L1364.23 156.584L1354.21 151.399L1344.19 146.755L1327.17 140.497L1304.99 134.772L1285.84 131.2L1266.51 128.878L1247.18 127.628L1227.67 127.451L1208.16 128.515L1188.82 130.491L1169.86 133.877L1150.88 138.175L1132.09 143.715L1115.79 149.432L1105.95 154.262L1095.56 160.156L1086.62 166.413L1078.39 173.566L1070.69 181.25L1062.64 191.088L1056.38 200.554L1051 210.206L1046.71 220.035L1042.23 236.307L1039.91 249.894L1038.84 263.836L1038.11 279.374L1038.48 290.461L1039.37 301.363L1041.69 312.104L1044.57 322.828L1050.46 336.407L1055.48 346.228L1061.39 355.348L1068.01 364.121L1081.26 376.797L1092 385.207L1103.27 392.536L1121.71 402.011L1136.91 408.091L1152.32 413.082L1179.52 418.993L1201.53 421.492L1223.72 422.928L1241.62 424L1258.28 423.807L1274.91 422.379L1291.2 420.234L1308.93 417.025L1321.98 413.808L1334.7 409.51L1347.23 404.325L1360.12 397.907L1369.05 392.891L1377.48 386.989L1385.17 380.562L1392.51 373.225L1398.96 365.363L1404.85 356.953L1409.7 348.204L1413.81 339.084L1416.85 329.424L1419 322.643L1327.71 321.393Z" fill="#1A1305"/>
</svg>
